#!OML:ASF F:\VICON\USERDATA\INSTALL\Justin_Nancy\Justin_Nancy.ASF
:FULLY-SPECIFIED
:DEGREES
116
root -0.361051 16.3567 3.44531 17.4872 4.42699 6.0501
lowerback 15.744 0.0087717 -4.52463
upperback 2.19986 -0.783857 -0.549285
thorax -6.42819 -0.276171 2.14312
lowerneck -20.168 -6.74777 -9.3601
upperneck -1.60784 -7.41539 12.0401
head 3.52747 -3.08077 4.5922
rclavicle -9.93923e-015 2.38542e-015
rhumerus -43.7453 7.99817 -92.1767
rradius 90.5793
rwrist -9.17977
rhand -21.5642 28.1378
rfingers 7.12502
rthumb 4.82955 -1.78712
lclavicle -9.93923e-015 2.38542e-015
lhumerus -41.8796 -4.00851 90.3838
lradius 90.579
lwrist 25.5079
lhand -21.7461 13.1317
lfingers 7.12502
lthumb 4.65396 43.0606
rfemur -23.0802 -6.3006 18.5429
rtibia 95.0416
rfoot -5.58561 2.05825
rtoes -5.13292
lfemur -39.6038 1.4999 -27.1485
ltibia 60.3647
lfoot -22.4433 -3.94039
ltoes -18.5116
117
root -0.375017 16.3217 3.9823 16.9846 4.67747 7.28428
lowerback 16.5284 -0.0514992 -5.89829
upperback 2.17566 -1.15859 -0.663294
thorax -6.83303 -0.41252 2.88995
lowerneck -20.3597 -6.91009 -9.64015
upperneck -1.40205 -7.58136 12.2568
head 3.65796 -3.14229 4.68285
rclavicle 2.18663e-014 7.55382e-015
rhumerus -47.2242 5.33071 -91.4049
rradius 91.859
rwrist -10.0929
rhand -21.4798 30.2292
rfingers 7.12502
rthumb 4.91106 0.306115
lclavicle 2.18663e-014 7.55382e-015
lhumerus -39.4364 -5.62419 92.4639
lradius 92.6052
lwrist 27.0766
lhand -21.5715 11.0289
lfingers 7.12502
lthumb 4.82256 40.954
rfemur -26.1768 -7.95747 16.7459
rtibia 98.4034
rfoot -6.431 3.19216
rtoes -2.90382
lfemur -36.0544 0.787064 -27.9893
ltibia 59.2453
lfoot -23.306 -3.6125
ltoes -19.4884
118
root -0.382328 16.2963 4.51231 17.1286 4.79221 8.00349
lowerback 16.6362 -0.102883 -6.61052
upperback 1.91405 -1.38199 -0.765771
thorax -7.14027 -0.48683 3.23616
lowerneck -20.2615 -6.89439 -9.62978
upperneck -1.20476 -7.58376 12.201
head 3.70081 -3.1466 4.6627
rclavicle -2.127e-014 -1.19271e-015
rhumerus -50.7854 2.84241 -90.5653
rradius 93.4852
rwrist -11.2023
rhand -21.7493 31.0693
rfingers 7.12502
rthumb 4.65088 1.14035
lclavicle -2.127e-014 -1.19271e-015
lhumerus -37.3977 -7.44729 94.2999
lradius 95.0484
lwrist 28.9511
lhand -19.5503 10.0495
lfingers 7.12502
lthumb 6.77399 39.9212
rfemur -30.2735 -9.25671 15.6577
rtibia 101.174
rfoot -7.14743 4.09452
rtoes -3.18195
lfemur -33.2878 0.234905 -28.387
ltibia 57.999
lfoot -23.8573 -3.24661
ltoes -20.4948
119
root -0.380973 16.2643 5.01744 18.1944 4.16398 7.96159
lowerback 15.6567 -0.0190476 -6.87342
upperback 1.4682 -1.25527 -0.669411
thorax -7.08714 -0.410282 3.44582
lowerneck -20.2459 -6.75673 -9.43998
upperneck -1.12068 -7.42613 11.8038
head 3.67805 -3.0885 4.52321
rclavicle -2.78299e-015 5.96354e-015
rhumerus -53.8959 0.913783 -89.4112
rradius 95.2809
rwrist -11.9307
rhand -21.552 31.928
rfingers 7.12502
rthumb 4.84137 2.00335
lclavicle -2.78299e-015 5.96354e-015
lhumerus -35.5091 -9.03225 96.1347
lradius 97.9564
lwrist 30.6772
lhand -19.7882 11.3733
lfingers 7.12502
lthumb 6.54431 41.2522
rfemur -36.1651 -9.50668 15.5089
rtibia 103.604
rfoot -7.56887 4.81625
rtoes -4.90903
lfemur -31.9026 0.440097 -28.3332
ltibia 56.8678
lfoot -24.0889 -2.85422
ltoes -22.0414
120
root -0.366592 16.27 5.59801 16.8465 5.94734 8.23944
lowerback 16.7631 -0.758569 -6.22506
upperback 1.79428 -2.16095 -0.426872
thorax -7.25925 -0.862069 3.55848
lowerneck -20.3069 -6.5166 -9.33536
upperneck -0.878241 -7.11541 11.3818
head 3.70257 -2.95182 4.40381
rclavicle -2.20651e-014 -9.54166e-015
rhumerus -56.8316 -0.486684 -88.1709
rradius 97.3578
rwrist -12.4712
rhand -21.2069 32.0056
rfingers 7.12502
rthumb 5.17453 2.08875
lclavicle -2.20651e-014 -9.54166e-015
lhumerus -33.887 -10.3729 97.9305
lradius 101.161
lwrist 32.0051
lhand -20.3835 12.998
lfingers 7.12502
lthumb 5.96956 42.8939
rfemur -37.1963 -11.997 15.2506
rtibia 104.397
rfoot -8.95561 5.46709
rtoes -5.75961
lfemur -27.1159 -0.926392 -27.7559
ltibia 55.2964
lfoot -24.6032 -3.21915
ltoes -23.3853
121
root -0.357439 16.2406 6.12035 17.8509 5.29983 7.80982
lowerback 15.5954 -0.886256 -5.99054
upperback 1.29243 -2.2129 -0.212399
thorax -7.15121 -0.88749 3.63714
lowerneck -20.5165 -6.13964 -9.13392
upperneck -0.295993 -6.65798 10.9733
head 3.8394 -2.73415 4.28428
rclavicle -9.93923e-015 -8.74653e-015
rhumerus -59.7349 -1.27446 -87.0959
rradius 99.5996
rwrist -12.7388
rhand -21.0424 31.5803
rfingers 7.12502
rthumb 5.33338 1.66744
lclavicle -9.93923e-015 -8.74653e-015
lhumerus -32.7461 -11.6638 99.4147
lradius 104.72
lwrist 33.1371
lhand -20.2946 13.3298
lfingers 7.12502
lthumb 6.05538 43.2233
rfemur -42.9035 -11.7932 15.8415
rtibia 105.409
rfoot -9.15548 5.94272
rtoes -5.67872
lfemur -25.5505 -0.64552 -27.3005
ltibia 53.7571
lfoot -24.1564 -3.30367
ltoes -24.4964
122
root -0.346101 16.2476 6.68717 17.6787 5.27335 7.67317
lowerback 15.5053 -1.33678 -5.7645
upperback 1.21759 -2.74902 -0.00506698
thorax -7.12548 -1.15067 3.83944
lowerneck -21.3382 -5.75236 -9.00761
upperneck 0.602962 -6.15561 10.7697
head 4.17536 -2.46333 4.24005
rclavicle 5.14852e-014 1.94809e-014
rhumerus -62.2259 -1.308 -86.3079
rradius 101.749
rwrist -12.9909
rhand -20.8457 31.1325
rfingers 7.12502
rthumb 5.52332 1.2245
lclavicle 5.14852e-014 1.94809e-014
lhumerus -31.6253 -12.9798 100.523
lradius 108.39
lwrist 34.2518
lhand -20.3912 12.8823
lfingers 7.12502
lthumb 5.9621 42.7784
rfemur -46.1389 -12.071 16.0499
rtibia 105.208
rfoot -9.88491 6.26262
rtoes -7.16042
lfemur -22.1663 -0.605242 -26.9084
ltibia 51.6433
lfoot -23.3827 -3.78252
ltoes -25.6781
123
root -0.324818 16.2843 7.3016 16.9137 4.54813 7.62647
lowerback 15.4738 -1.62643 -5.87746
upperback 1.45547 -3.13018 0.102386
thorax -6.79862 -1.34796 4.08614
lowerneck -21.9673 -5.33383 -8.8963
upperneck 1.15555 -5.61468 10.7406
head 4.38305 -2.17463 4.2663
rclavicle -1.0138e-014 -3.97569e-016
rhumerus -64.3922 -0.781705 -85.7761
rradius 103.852
rwrist -13.9147
rhand -20.7186 31.0932
rfingers 7.12502
rthumb 5.64609 1.18838
lclavicle -1.0138e-014 -3.97569e-016
lhumerus -30.605 -14.439 101.258
lradius 112.171
lwrist 35.4675
lhand -20.5081 11.892
lfingers 7.12502
lthumb 5.84924 41.7913
rfemur -48.4036 -11.5427 15.8695
rtibia 104.04
rfoot -10.8078 6.34641
rtoes -10.8754
lfemur -17.7392 -0.0631861 -26.8273
ltibia 49.2037
lfoot -22.5096 -4.2417
ltoes -26.9894
124
root -0.305028 16.3053 7.90879 16.5971 4.07615 7.70374
lowerback 15.1162 -2.01635 -5.85549
upperback 1.41735 -3.61514 0.163299
thorax -6.58539 -1.59197 4.21486
lowerneck -22.0101 -4.90665 -8.88406
upperneck 1.48842 -5.07056 10.7432
head 4.44064 -1.90307 4.32555
rclavicle 3.97569e-016 3.18055e-015
rhumerus -66.7558 -0.223505 -85.2417
rradius 106.041
rwrist -15.1547
rhand -20.3368 31.0387
rfingers 7.12502
rthumb 6.01464 1.14406
lclavicle 3.97569e-016 3.18055e-015
lhumerus -30.242 -16.2049 101.87
lradius 116.124
lwrist 36.7747
lhand -21.329 11.3362
lfingers 7.12502
lthumb 5.05666 41.2558
rfemur -50.507 -11.2687 15.6059
rtibia 102.457
rfoot -12.2658 6.17998
rtoes -14.8502
lfemur -13.9243 0.0557161 -26.8149
ltibia 46.5144
lfoot -20.685 -5.12875
ltoes -27.385
125
root -0.290184 16.3402 8.52284 16.4587 3.49789 7.7847
lowerback 14.7801 -2.36375 -5.85896
upperback 1.16847 -4.06111 0.205797
thorax -6.61356 -1.80323 4.33496
lowerneck -22.3075 -4.47127 -8.61031
upperneck 2.27492 -4.56668 10.4194
head 4.66301 -1.65801 4.23147
rclavicle 1.94809e-014 -1.39149e-014
rhumerus -69.3752 0.452664 -84.795
rradius 108.288
rwrist -16.59
rhand -19.4492 31.1787
rfingers 7.12502
rthumb 6.87159 1.31026
lclavicle 1.94809e-014 -1.39149e-014
lhumerus -30.2046 -18.0347 102.175
lradius 119.95
lwrist 38.0607
lhand -21.4619 11.058
lfingers 7.12502
lthumb 4.92834 40.9807
rfemur -52.7454 -10.8001 15.4964
rtibia 100.347
rfoot -13.2557 5.70457
rtoes -17.2905
lfemur -10.4537 0.168318 -26.8391
ltibia 43.6284
lfoot -17.7755 -6.23269
ltoes -27.4751
126
root -0.293152 16.3882 9.14337 16.3674 2.36665 7.73986
lowerback 14.4766 -2.39261 -6.26663
upperback 0.853041 -4.14684 0.402594
thorax -6.73093 -1.82001 4.7831
lowerneck -22.5141 -4.13914 -8.52994
upperneck 2.96015 -4.13829 10.0273
head 4.85204 -1.46245 4.13973
rclavicle -3.69739e-014 -4.37326e-015
rhumerus -72.057 1.11193 -84.1265
rradius 110.5
rwrist -18.1556
rhand -18.2305 32.0175
rfingers 7.12502
rthumb 8.04789 2.19068
lclavicle -3.69739e-014 -4.37326e-015
lhumerus -30.4375 -19.9706 102.514
lradius 123.729
lwrist 39.3337
lhand -19.8878 10.1234
lfingers 7.12502
lthumb 6.44811 40.0052
rfemur -55.1048 -9.5666 15.5745
rtibia 97.7126
rfoot -13.5531 4.95034
rtoes -17.1532
lfemur -7.12685 0.616689 -26.8754
ltibia 40.6629
lfoot -13.9893 -7.34177
ltoes -28.7413
127
root -0.295133 16.439 9.78011 16.3028 1.25247 7.53354
lowerback 13.916 -2.37305 -6.41736
upperback 0.628319 -4.09926 0.664496
thorax -6.63573 -1.78961 5.11126
lowerneck -22.6149 -3.91899 -8.62958
upperneck 3.46723 -3.80486 9.66628
head 4.98484 -1.32054 4.07705
rclavicle 1.13307e-014 -5.96354e-015
rhumerus -74.6062 1.61441 -83.4763
rradius 112.646
rwrist -19.3689
rhand -18.91 32.5197
rfingers 7.12502
rthumb 7.39204 2.6688
lclavicle 1.13307e-014 -5.96354e-015
lhumerus -30.6348 -22.191 102.625
lradius 127.205
lwrist 40.9357
lhand -18.2819 9.31154
lfingers 7.12502
lthumb 7.99825 39.1402
rfemur -57.012 -8.24893 15.7498
rtibia 94.5484
rfoot -13.5527 3.9514
rtoes -16.5909
lfemur -3.77713 1.02331 -26.7959
ltibia 37.5326
lfoot -9.54747 -8.36952
ltoes -31.0727
